<svg xmlns="http://www.w3.org/2000/svg" viewBox="0 0 44.209 55.261"><g transform="translate(-4 -2)"><path d="M9.526,2A5.537,5.537,0,0,0,4,7.526V51.735a5.537,5.537,0,0,0,5.526,5.526H42.683a5.537,5.537,0,0,0,5.526-5.526V7.526A5.537,5.537,0,0,0,42.683,2Zm0,5.526H42.683V18.578H9.526Zm24.868,2.763v5.526H39.92V10.289ZM12.289,24.1h5.526v5.526H12.289Zm11.052,0h5.526v5.526H23.341Zm11.052,0H39.92v5.526H34.394Zm-22.1,11.052h5.526v5.526H12.289Zm11.052,0h5.526v5.526H23.341Zm11.052,0H39.92v5.526H34.394Zm-22.1,11.052h5.526v5.526H12.289Zm11.052,0h5.526v5.526H23.341Zm11.052,0H39.92v5.526H34.394Z"/></g></svg>