<svg xmlns="http://www.w3.org/2000/svg" viewBox="0 0 46.458 51.62"><g transform="translate(-3 -2)"><path d="M26.229,2A23.261,23.261,0,0,0,3,25.229V40.715a5.159,5.159,0,0,0,5.162,5.162h7.743V27.81H8.162V25.229a18.067,18.067,0,0,1,36.134,0V27.81H36.553V45.877h2.581a2.586,2.586,0,0,1-2.581,2.581h-5.4a3.852,3.852,0,0,0-3.63-2.581H24.939a3.872,3.872,0,1,0,0,7.743H36.553A7.758,7.758,0,0,0,44.3,45.877a5.159,5.159,0,0,0,5.162-5.162V25.229A23.261,23.261,0,0,0,26.229,2Z" transform="translate(0)"/></g></svg>