<svg xmlns="http://www.w3.org/2000/svg" viewBox="0 0 136.304 111.703"><defs><style>.a{stroke:#000;stroke-linecap:round;stroke-linejoin:bevel;}</style></defs><g transform="translate(0.5 0.5)"><path class="a" d="M135.3,44.939a5.287,5.287,0,0,0-5.272-5.272H5.272A5.287,5.287,0,0,0,0,44.939V145.1a5.287,5.287,0,0,0,5.272,5.272h124.76A5.287,5.287,0,0,0,135.3,145.1ZM10.543,139.827V77.359l52.979,45.6a4.781,4.781,0,0,0,3.339,1.23,6.149,6.149,0,0,0,3.6-1.23l54.3-45.423v62.292ZM124.76,50.21V63.828c-.878.088-.439.176-.527.176L66.949,112.063,10.719,63.74c-.088-.088-.176-.176-.176-.264V50.21Z" transform="translate(0 -39.667)"/></g></svg>