<svg xmlns="http://www.w3.org/2000/svg" viewBox="0 0 92.694 110.839"><g transform="translate(0)"><path d="M49.347,2C23.8,2,3,24.384,3,51.878V85.13c0,6.126,4.607,11.084,10.3,11.084H28.748V57.42H13.3V51.878c0-21.389,16.173-38.794,36.048-38.794S85.395,30.489,85.395,51.878V57.42H69.946V96.214H75.1a5.367,5.367,0,0,1-5.15,5.542H59.163a7.749,7.749,0,0,0-7.242-5.542h-5.15c-4.265,0-7.724,3.724-7.724,8.313s3.46,8.313,7.724,8.313H69.946c8.509,0,15.449-7.469,15.449-16.626,5.693,0,10.3-4.957,10.3-11.084V51.878C95.694,24.384,74.894,2,49.347,2Z" transform="translate(-3 -2)"/></g></svg>