<svg xmlns="http://www.w3.org/2000/svg" viewBox="0 0 103.806 111.703"><defs><style>.a{stroke:#000;stroke-linejoin:bevel;}</style></defs><g transform="translate(0.502 0.5)"><path class="a" d="M9.129,103.375a7.147,7.147,0,0,0,.727.64l3.636,2.419c.132.071.331.213.463.285A41.313,41.313,0,0,0,31.738,110.7c10.577,0,20.031-3.984,26.708-11.17L92.758,62.608C103.4,51.154,106.046,31.518,99.17,14.869a2.948,2.948,0,0,0-.331-.64l-2.314-3.771c-.132-.213-.331-.427-.463-.64L89.915,3.2A9.767,9.767,0,0,0,82.775,0,8.991,8.991,0,0,0,76.23,2.917L58.381,22.126a11.03,11.03,0,0,0,.2,14.8l7.008,7.541L41.721,70.15l-7.14-7.684a8.7,8.7,0,0,0-6.809-3.131,9.335,9.335,0,0,0-6.743,2.988L3.179,81.533A11.792,11.792,0,0,0,.2,88.933a10.734,10.734,0,0,0,2.711,7.755ZM8.8,87.581l17.85-19.209a1.622,1.622,0,0,1,2.446.142l9.916,10.672a3.829,3.829,0,0,0,5.619,0l29.419-31.66a4.562,4.562,0,0,0,1.19-2.988,4.252,4.252,0,0,0-1.19-2.988L64.264,30.877a2.125,2.125,0,0,1-.2-2.775L81.916,8.893a1.163,1.163,0,0,1,.926-.427,2.2,2.2,0,0,1,1.521.711l5.818,6.261L92.1,18.569c6.28,15.652,1.917,30.593-4.892,37.85L52.894,93.486c-5.223,5.62-12.693,8.68-21.155,8.68a33.644,33.644,0,0,1-14.28-3.131l-3.041-1.992L8.534,90.711a1.975,1.975,0,0,1-.4-1.352A3.509,3.509,0,0,1,8.8,87.581Z" transform="translate(-0.193)"/></g></svg>